<svg xmlns="http://www.w3.org/2000/svg" xmlns:xlink="http://www.w3.org/1999/xlink" width="500" zoomAndPan="magnify" viewBox="0 0 375 374.999991" height="500" preserveAspectRatio="xMidYMid meet" version="1.0"><defs><g/><clipPath id="id1"><path d="M 45 53 L 325 53 L 325 280 L 45 280 Z M 45 53 " clip-rule="nonzero"/></clipPath><clipPath id="id2"><path d="M 325.011719 307.414062 L 25.011719 277.371094 L 49.972656 28.117188 L 349.972656 58.160156 Z M 325.011719 307.414062 " clip-rule="nonzero"/></clipPath><clipPath id="id3"><path d="M 325.011719 307.414062 L 25.011719 277.371094 L 49.972656 28.117188 L 349.972656 58.160156 Z M 325.011719 307.414062 " clip-rule="nonzero"/></clipPath></defs><g clip-path="url(#id1)"><g clip-path="url(#id2)"><g clip-path="url(#id3)"><path fill="#ffde59" d="M 185.777344 269.363281 C 148.277344 278.90625 117.660156 286.699219 99.875 270.65625 C 81.539062 254.125 97.253906 230.6875 76.125 186.632812 C 62.773438 158.808594 52.402344 159.609375 47.222656 137.554688 C 41.332031 112.480469 46.6875 77.121094 69.6875 61.460938 C 87.378906 49.414062 108.597656 53.726562 133.464844 58.777344 C 188.089844 69.871094 196.769531 94.929688 229.816406 93.167969 C 270.566406 90.992188 283.140625 51.515625 301.761719 58.3125 C 328.25 67.976562 339.46875 161.285156 294.148438 216.714844 C 268.257812 248.375 232.207031 257.546875 185.777344 269.363281 Z M 185.777344 269.363281 " fill-opacity="1" fill-rule="nonzero"/></g></g></g><g fill="#000000" fill-opacity="1"><g transform="translate(15.328128, 193.802046)"><g><path d="M 16.207031 2.214844 C 24.25 2.214844 36.375 -4.664062 42.089844 -9.792969 C 46.636719 -13.640625 50.597656 -18.070312 54.445312 -22.617188 C 54.5625 -22.851562 54.796875 -23.085938 54.914062 -23.316406 C 55.03125 -23.433594 55.261719 -23.667969 55.378906 -23.902344 C 55.730469 -24.601562 55.730469 -25.183594 55.144531 -25.648438 C 54.914062 -25.882812 54.5625 -26 54.214844 -26 C 53.980469 -26 53.746094 -25.882812 53.398438 -25.765625 C 53.046875 -25.417969 52.582031 -24.949219 52.230469 -24.601562 C 51.882812 -24.132812 51.414062 -23.667969 51.066406 -23.316406 C 42.902344 -13.640625 34.394531 -6.0625 22.386719 -1.980469 C 20.167969 -1.164062 18.1875 -0.816406 16.4375 -0.816406 C 11.425781 -0.933594 7.578125 -2.796875 5.246094 -7.34375 C 3.03125 -11.425781 2.566406 -15.621094 3.03125 -19.9375 C 5.246094 -38.707031 13.523438 -57.710938 30.429688 -66.921875 C 32.644531 -67.96875 34.742188 -68.785156 36.839844 -69.371094 C 37.65625 -69.484375 38.242188 -69.601562 38.824219 -69.601562 C 41.738281 -69.601562 43.253906 -67.855469 43.488281 -64.355469 C 43.71875 -62.839844 43.605469 -61.207031 43.019531 -59.460938 C 41.273438 -52.929688 36.609375 -46.285156 32.527344 -41.039062 C 31.945312 -40.457031 31.828125 -39.988281 32.0625 -39.40625 C 32.179688 -39.171875 32.527344 -39.058594 32.878906 -39.058594 C 33.695312 -39.058594 34.394531 -39.640625 34.859375 -40.457031 C 39.523438 -46.402344 44.304688 -52.699219 46.050781 -60.160156 C 46.636719 -62.375 46.636719 -64.355469 46.167969 -66.222656 C 45.234375 -70.886719 42.789062 -72.632812 38.125 -72.632812 C 27.746094 -71.46875 16.554688 -61.675781 11.191406 -52.929688 C 5.828125 -44.769531 0 -28.5625 0 -18.652344 C -0.117188 -12.941406 0.816406 -8.394531 3.496094 -4.3125 C 6.296875 0.234375 11.074219 2.214844 16.207031 2.214844 Z M 16.207031 2.214844 "/></g></g></g><g fill="#000000" fill-opacity="1"><g transform="translate(65.106972, 193.802046)"><g><path d="M 17.488281 12.476562 C 36.140625 11.542969 48.734375 -13.058594 55.03125 -29.847656 C 56.894531 -34.976562 57.945312 -40.339844 58.410156 -45.820312 C 58.761719 -50.132812 57.828125 -54.214844 55.378906 -57.828125 C 53.398438 -60.625 50.949219 -62.609375 47.335938 -63.191406 C 46.285156 -63.308594 45.351562 -63.421875 44.417969 -63.421875 C 36.257812 -63.421875 29.730469 -56.429688 26.347656 -49.316406 C 25.417969 -47.335938 25.183594 -45.234375 24.832031 -43.019531 C 24.714844 -42.203125 25.300781 -41.503906 26.117188 -41.386719 C 26.699219 -41.386719 27.164062 -41.738281 27.515625 -42.4375 C 27.632812 -42.789062 27.863281 -43.253906 27.980469 -43.835938 C 28.679688 -49.667969 35.09375 -58.292969 40.804688 -59.808594 C 42.320312 -60.160156 43.605469 -60.390625 44.652344 -60.390625 C 48.964844 -60.390625 51.996094 -58.292969 53.863281 -54.214844 C 55.144531 -51.53125 55.613281 -48.851562 55.378906 -46.167969 C 54.914062 -40.222656 53.164062 -32.761719 50.132812 -25.300781 C 48.617188 -21.453125 46.75 -17.722656 44.769531 -13.992188 C 40.6875 -6.527344 35.675781 -0.351562 30.078125 4.3125 C 27.164062 6.527344 24.132812 8.160156 20.984375 8.976562 C 19.238281 9.328125 17.835938 9.558594 16.789062 9.558594 C 10.027344 9.558594 6.179688 3.265625 4.546875 -3.03125 C 1.867188 -12.242188 2.566406 -21.21875 5.710938 -30.078125 C 9.792969 -41.855469 16.4375 -52.113281 25.300781 -61.09375 C 28.449219 -64.238281 31.128906 -67.503906 35.910156 -67.96875 C 36.492188 -67.96875 36.839844 -68.671875 36.839844 -69.484375 C 36.726562 -70.300781 36.257812 -70.652344 35.675781 -70.769531 C 34.394531 -70.769531 34.042969 -70.652344 32.761719 -70.300781 C 30.429688 -69.484375 28.332031 -68.085938 26.347656 -66.222656 C 16.089844 -56.777344 8.277344 -45.703125 3.265625 -32.527344 C 1.050781 -26.816406 -0.351562 -20.871094 0 -14.691406 C -0.117188 -10.144531 0.351562 -6.0625 1.632812 -1.867188 C 3.847656 6.0625 8.628906 12.476562 17.488281 12.476562 Z M 17.488281 12.476562 "/></g></g></g><g fill="#000000" fill-opacity="1"><g transform="translate(125.960743, 193.802046)"><g><path d="M 1.398438 12.707031 C 2.214844 12.707031 2.914062 12.359375 3.265625 11.773438 C 4.195312 10.257812 4.429688 8.742188 4.78125 6.996094 L 8.628906 -10.492188 C 8.742188 -11.074219 8.976562 -11.542969 9.09375 -12.125 C 9.210938 -12.707031 9.445312 -13.175781 10.027344 -13.640625 C 12.359375 -13.289062 14.574219 -12.242188 16.789062 -11.308594 C 18.070312 -10.84375 19.238281 -10.375 20.519531 -9.910156 C 21.683594 -9.328125 22.96875 -8.859375 24.25 -8.394531 C 26.464844 -7.578125 28.796875 -7.226562 31.128906 -7.226562 C 36.140625 -7.226562 42.203125 -9.210938 46.285156 -12.359375 C 50.367188 -15.507812 54.328125 -18.539062 58.410156 -21.683594 C 59.226562 -22.152344 59.691406 -22.734375 60.277344 -23.550781 C 60.507812 -23.902344 60.625 -24.367188 60.625 -24.949219 C 60.742188 -25.53125 60.042969 -26.230469 59.460938 -26.230469 C 59.34375 -26.230469 59.34375 -26.230469 59.34375 -26.230469 C 59.226562 -26.117188 59.226562 -26.117188 59.109375 -26.117188 C 58.875 -26 58.527344 -25.882812 58.0625 -25.53125 C 56.078125 -23.785156 54.097656 -22.035156 51.996094 -20.519531 C 49.78125 -18.886719 47.683594 -17.253906 45.585938 -15.621094 C 41.503906 -12.476562 36.140625 -10.257812 31.128906 -10.257812 C 29.613281 -10.257812 28.097656 -10.375 26.582031 -10.84375 C 23.199219 -11.773438 19.9375 -13.289062 16.671875 -14.804688 C 16.4375 -14.921875 16.320312 -15.039062 16.320312 -15.390625 C 16.320312 -15.621094 16.4375 -15.855469 16.671875 -15.972656 C 17.023438 -16.089844 17.371094 -16.320312 17.722656 -16.554688 C 18.070312 -16.671875 18.304688 -16.90625 18.652344 -17.023438 C 31.246094 -23.902344 41.15625 -32.996094 47.683594 -45.933594 C 48.734375 -48.152344 49.667969 -50.367188 50.25 -52.699219 C 50.832031 -54.679688 50.949219 -56.660156 50.597656 -58.761719 C 50.25 -61.207031 48.734375 -62.609375 46.285156 -62.839844 C 33.578125 -62.839844 21.570312 -46.867188 15.738281 -35.792969 C 15.390625 -36.839844 15.390625 -37.773438 15.738281 -38.707031 C 16.089844 -39.523438 16.320312 -40.457031 16.554688 -41.386719 C 18.886719 -50.832031 21.453125 -60.390625 23.902344 -69.835938 C 24.25 -70.769531 24.601562 -71.816406 24.25 -72.867188 C 24.132812 -73.449219 23.785156 -73.800781 23.316406 -73.917969 C 23.199219 -73.917969 23.199219 -73.917969 23.199219 -74.03125 C 23.085938 -74.03125 23.085938 -74.03125 22.96875 -74.03125 C 22.617188 -74.03125 22.386719 -73.800781 22.035156 -73.332031 C 21.570312 -72.632812 21.21875 -71.933594 21.101562 -71.117188 C 20.871094 -70.300781 20.636719 -69.484375 20.402344 -68.671875 C 17.722656 -57.59375 15.039062 -46.75 11.890625 -35.910156 C 10.375 -30.664062 9.09375 -25.417969 7.8125 -20.167969 C 6.527344 -14.921875 4.898438 -9.792969 2.914062 -4.78125 C 1.164062 -0.582031 0.464844 3.730469 0.117188 8.277344 C 0 9.328125 -0.234375 10.375 0.117188 11.308594 C 0.351562 12.007812 0.816406 12.476562 1.398438 12.707031 Z M 12.007812 -17.835938 C 11.542969 -17.835938 10.960938 -18.304688 11.308594 -18.886719 C 16.671875 -32.527344 26.582031 -52.464844 40.339844 -58.527344 C 41.738281 -59.109375 43.136719 -59.808594 44.652344 -59.808594 C 46.867188 -59.808594 47.683594 -59.226562 47.800781 -57.011719 L 47.800781 -56.3125 C 47.449219 -49.78125 40.921875 -39.640625 36.609375 -34.976562 C 30.3125 -28.097656 21.453125 -20.285156 12.359375 -17.835938 Z M 12.007812 -17.835938 "/></g></g></g><g fill="#000000" fill-opacity="1"><g transform="translate(180.752453, 193.802046)"><g><path d="M 1.398438 10.144531 C 2.214844 10.144531 2.679688 10.027344 3.265625 9.675781 C 5.597656 8.976562 7.929688 8.394531 10.257812 7.929688 C 14.691406 7.34375 23.785156 5.945312 27.746094 3.964844 C 29.03125 3.382812 29.378906 2.332031 28.796875 1.515625 C 28.679688 1.164062 28.332031 0.933594 27.746094 0.933594 C 27.164062 0.933594 26.816406 1.050781 26.464844 1.164062 C 22.851562 2.566406 19.238281 3.382812 15.390625 3.964844 C 15.15625 4.082031 14.804688 4.082031 14.457031 4.082031 C 13.640625 4.082031 13.289062 3.382812 13.640625 1.867188 C 19.121094 -18.304688 25.417969 -37.542969 31.945312 -57.476562 C 32.527344 -59.34375 33.695312 -60.390625 35.558594 -60.742188 C 40.222656 -62.023438 44.886719 -63.191406 49.550781 -64.472656 C 50.832031 -64.824219 51.765625 -65.171875 52.8125 -65.753906 C 53.398438 -66.105469 53.746094 -66.570312 53.628906 -67.269531 C 53.628906 -67.855469 52.929688 -68.671875 52.464844 -68.554688 C 51.882812 -68.4375 51.414062 -68.203125 51.066406 -68.085938 C 48.617188 -67.15625 46.050781 -66.339844 43.488281 -65.753906 C 40.804688 -65.171875 38.242188 -64.472656 35.675781 -63.773438 C 35.210938 -63.773438 34.625 -63.890625 34.625 -64.472656 C 34.511719 -65.289062 34.160156 -66.105469 33.34375 -66.222656 L 32.996094 -66.222656 C 32.644531 -66.222656 32.292969 -66.105469 32.0625 -65.753906 C 31.828125 -65.40625 31.59375 -65.171875 31.363281 -64.824219 L 31.011719 -64.125 C 30.664062 -62.839844 29.730469 -62.140625 28.214844 -61.90625 C 24.949219 -61.207031 14.105469 -57.945312 12.359375 -55.03125 C 12.007812 -54.445312 12.125 -53.980469 12.476562 -53.628906 C 12.707031 -53.28125 13.058594 -53.164062 13.523438 -53.164062 C 13.875 -53.164062 14.222656 -53.28125 14.457031 -53.511719 C 18.539062 -56.660156 23.199219 -57.476562 27.863281 -58.761719 L 28.214844 -58.761719 C 28.796875 -58.761719 28.914062 -58.527344 28.796875 -57.945312 C 28.679688 -57.359375 28.5625 -56.894531 28.449219 -56.429688 C 28.332031 -55.960938 28.097656 -55.496094 27.980469 -55.03125 C 26.582031 -50.832031 25.183594 -46.75 23.902344 -42.671875 C 22.5 -38.589844 21.101562 -34.511719 19.820312 -30.3125 C 18.070312 -25.066406 16.4375 -19.9375 15.15625 -14.691406 C 13.757812 -9.445312 12.242188 -4.082031 10.726562 1.164062 L 9.910156 3.730469 C 9.675781 4.546875 9.210938 5.011719 8.394531 5.246094 C 6.527344 5.597656 4.664062 6.0625 2.796875 6.644531 C 2.097656 6.878906 1.28125 7.226562 0.464844 7.8125 C 0 8.042969 -0.117188 8.511719 0 9.210938 C 0.351562 9.910156 0.816406 10.257812 1.398438 10.144531 Z M 1.398438 10.144531 "/></g></g></g><g fill="#000000" fill-opacity="1"><g transform="translate(215.725882, 193.802046)"><g><path d="M 2.566406 17.835938 C 2.914062 17.835938 3.265625 17.835938 3.382812 17.722656 C 4.3125 17.488281 5.128906 17.023438 5.945312 16.207031 C 6.527344 15.621094 7.113281 14.921875 7.695312 14.339844 C 8.277344 13.757812 8.742188 13.058594 9.210938 12.476562 C 10.257812 10.960938 11.308594 9.328125 12.359375 7.695312 C 13.40625 6.0625 14.339844 4.429688 15.390625 2.796875 C 18.652344 -2.332031 21.683594 -7.578125 24.832031 -12.824219 C 29.378906 -20.285156 34.394531 -28.679688 41.039062 -34.394531 C 41.972656 -35.210938 42.902344 -35.792969 43.835938 -36.375 C 43.953125 -36.492188 44.070312 -36.492188 44.304688 -36.492188 C 44.886719 -36.492188 45.234375 -36.257812 45.351562 -35.675781 C 45.46875 -35.09375 45.46875 -34.625 45.585938 -34.160156 C 45.585938 -33.695312 45.585938 -33.226562 45.703125 -32.644531 L 45.703125 -26.117188 C 45.351562 -22.035156 45.46875 -18.421875 46.050781 -14.339844 C 47.101562 -10.027344 48.035156 -5.945312 52.699219 -5.945312 C 52.8125 -5.945312 53.046875 -5.945312 53.28125 -6.0625 C 53.398438 -6.0625 53.628906 -6.0625 53.863281 -6.0625 C 55.613281 -6.414062 57.246094 -7.113281 58.761719 -8.160156 C 61.675781 -10.144531 71.46875 -21.101562 72.75 -24.367188 C 72.867188 -24.949219 72.75 -25.417969 72.167969 -25.648438 C 71.933594 -25.882812 71.703125 -26 71.351562 -26 C 70.535156 -26 69.601562 -24.484375 69.253906 -24.015625 C 66.921875 -21.101562 59.578125 -12.359375 57.359375 -10.84375 C 56.078125 -10.027344 54.914062 -9.210938 53.164062 -9.09375 C 51.882812 -9.09375 51.183594 -9.210938 50.367188 -10.492188 C 49.550781 -12.007812 49.316406 -13.523438 48.964844 -15.273438 C 48.382812 -19.820312 48.265625 -24.015625 48.617188 -28.5625 C 48.734375 -29.847656 48.734375 -31.128906 48.734375 -32.410156 C 48.734375 -33.695312 48.617188 -34.976562 48.382812 -36.257812 C 47.917969 -38.589844 46.75 -39.757812 44.886719 -39.757812 C 40.339844 -39.757812 32.761719 -30.195312 30.195312 -26.699219 C 26.933594 -22.152344 24.015625 -17.371094 21.101562 -12.589844 L 10.960938 4.429688 C 8.976562 7.578125 6.996094 10.609375 4.3125 13.289062 C 4.082031 13.523438 3.847656 13.523438 3.730469 13.40625 C 3.382812 13.40625 3.265625 13.289062 3.265625 12.941406 C 3.382812 12.359375 3.382812 11.890625 3.382812 11.425781 C 3.382812 10.84375 3.496094 10.375 3.613281 9.910156 C 4.195312 7.929688 4.664062 5.828125 5.128906 3.847656 C 5.597656 1.75 6.0625 -0.351562 6.644531 -2.332031 C 10.726562 -16.90625 16.207031 -30.546875 22.617188 -44.417969 L 30.777344 -62.375 C 31.011719 -62.839844 31.246094 -63.308594 31.480469 -63.773438 C 31.710938 -64.238281 31.828125 -64.707031 31.710938 -65.289062 C 31.59375 -65.871094 31.363281 -66.105469 31.128906 -66.222656 C 30.777344 -66.339844 30.664062 -66.453125 30.546875 -66.453125 C 30.3125 -66.453125 30.078125 -66.339844 29.730469 -66.222656 C 29.261719 -65.871094 28.914062 -65.40625 28.796875 -64.9375 C 28.5625 -64.472656 28.332031 -64.007812 28.097656 -63.65625 C 26.117188 -59.109375 24.015625 -54.796875 22.035156 -50.480469 C 13.058594 -31.363281 5.246094 -11.660156 0.699219 8.976562 C 0.234375 11.308594 -0.234375 13.523438 0.234375 15.855469 C 0.464844 17.136719 1.28125 17.835938 2.566406 17.835938 Z M 2.566406 17.835938 "/></g></g></g><g fill="#000000" fill-opacity="1"><g transform="translate(282.641725, 193.802046)"><g><path d="M 3.613281 11.074219 C 6.644531 11.074219 11.074219 4.3125 12.707031 1.75 C 15.621094 -3.03125 18.421875 -7.695312 21.21875 -12.707031 L 32.410156 -31.710938 C 33.109375 -32.996094 33.808594 -33.578125 34.394531 -33.578125 C 34.742188 -33.578125 35.324219 -33.460938 36.140625 -33.226562 C 40.222656 -31.945312 44.417969 -30.894531 48.734375 -30.777344 C 49.78125 -30.777344 50.25 -30.3125 50.132812 -29.378906 C 50.132812 -29.03125 50.132812 -28.5625 50.015625 -28.214844 C 49.898438 -27.863281 49.898438 -27.398438 49.898438 -27.046875 C 49.082031 -21.101562 48.5 -15.15625 48.851562 -9.210938 C 48.964844 -5.128906 49.550781 -1.050781 50.949219 2.796875 C 52.230469 5.710938 54.097656 7.695312 56.546875 8.742188 C 57.128906 9.09375 57.710938 9.210938 58.410156 9.210938 L 59.109375 9.210938 C 60.160156 9.09375 60.859375 7.929688 60.742188 6.644531 C 60.625 5.710938 60.042969 4.898438 59.226562 4.898438 C 58.992188 4.898438 58.761719 4.898438 58.644531 5.011719 C 58.175781 5.246094 57.710938 5.363281 57.359375 5.363281 C 54.679688 5.363281 52.929688 -0.582031 52.582031 -2.796875 C 51.996094 -5.710938 51.648438 -8.742188 51.765625 -11.890625 C 52.113281 -27.398438 55.378906 -41.972656 58.992188 -57.011719 C 59.578125 -59.460938 60.042969 -61.792969 60.507812 -64.472656 C 60.859375 -65.753906 60.976562 -67.15625 60.390625 -68.554688 C 59.925781 -69.601562 59.226562 -70.070312 58.175781 -70.070312 C 58.0625 -70.070312 57.710938 -69.953125 57.246094 -69.835938 C 53.628906 -67.855469 45.121094 -57.128906 42.902344 -53.628906 C 41.386719 -51.183594 39.757812 -48.734375 38.125 -46.285156 C 36.492188 -43.835938 34.859375 -41.386719 33.226562 -38.941406 C 32.527344 -37.890625 31.945312 -37.425781 31.59375 -37.425781 C 31.480469 -37.425781 31.011719 -37.542969 30.195312 -37.65625 C 28.914062 -38.007812 27.515625 -38.242188 26.230469 -38.472656 C 24.949219 -38.707031 23.550781 -38.941406 22.269531 -39.171875 C 21.453125 -39.289062 20.519531 -39.40625 19.703125 -39.40625 C 17.023438 -39.40625 13.757812 -38.824219 12.007812 -36.609375 C 11.074219 -35.558594 10.960938 -34.277344 11.542969 -32.996094 C 12.242188 -31.710938 13.289062 -31.128906 14.574219 -31.128906 C 14.921875 -31.363281 15.15625 -31.480469 15.15625 -31.480469 C 15.273438 -31.710938 15.273438 -31.945312 15.039062 -32.179688 C 14.921875 -32.292969 14.921875 -32.410156 14.804688 -32.410156 C 14.691406 -32.410156 14.457031 -32.527344 14.339844 -32.644531 C 12.589844 -34.160156 12.707031 -35.324219 14.691406 -36.257812 C 16.4375 -37.074219 17.371094 -37.074219 19.355469 -37.074219 C 22.96875 -37.074219 26.582031 -36.375 30.195312 -34.859375 C 30.195312 -34.277344 30.078125 -33.925781 29.847656 -33.578125 C 29.613281 -33.226562 29.378906 -32.878906 29.261719 -32.527344 L 15.273438 -8.394531 C 13.992188 -6.296875 12.824219 -4.195312 11.660156 -2.214844 C 10.375 -0.117188 9.09375 1.867188 7.578125 3.847656 C 6.527344 5.246094 5.597656 6.414062 4.664062 7.34375 C 4.429688 7.578125 4.195312 7.695312 3.847656 7.695312 C 3.382812 7.695312 3.03125 7.460938 2.914062 6.878906 C 2.449219 4.429688 2.566406 2.097656 3.148438 0.117188 C 3.382812 -0.816406 3.847656 -1.28125 4.664062 -1.398438 C 5.128906 -1.515625 5.710938 -1.75 5.597656 -2.332031 C 5.480469 -2.914062 5.128906 -3.382812 4.3125 -3.613281 C 2.914062 -3.613281 2.332031 -3.382812 1.515625 -2.097656 C -0.234375 1.515625 -0.464844 5.246094 0.816406 8.976562 L 1.164062 9.675781 C 1.75 10.609375 2.566406 11.074219 3.613281 11.074219 Z M 47.449219 -33.925781 C 43.71875 -33.925781 40.222656 -34.976562 36.609375 -36.027344 C 35.792969 -36.140625 35.558594 -36.609375 35.910156 -37.425781 C 36.027344 -37.773438 36.257812 -38.007812 36.492188 -38.355469 C 36.609375 -38.589844 36.839844 -38.824219 36.957031 -39.058594 C 40.574219 -44.535156 44.070312 -49.78125 47.800781 -55.261719 C 48.964844 -57.011719 50.25 -58.644531 51.765625 -60.160156 C 53.164062 -61.675781 54.5625 -63.191406 55.960938 -64.707031 C 56.3125 -65.171875 56.546875 -65.289062 56.894531 -65.171875 C 57.246094 -65.054688 57.476562 -64.9375 57.476562 -64.707031 C 57.476562 -64.472656 57.476562 -64.238281 57.359375 -64.007812 C 57.011719 -62.257812 56.777344 -60.859375 56.3125 -59.109375 C 54.5625 -51.53125 52.929688 -43.953125 51.183594 -36.492188 C 50.714844 -34.160156 50.480469 -34.042969 48.265625 -33.925781 Z M 47.449219 -33.925781 "/></g></g></g><g fill="#000000" fill-opacity="1"><g transform="translate(73.255193, 325.698084)"><g><path d="M 8.25 0.15625 C 6.863281 0.15625 5.613281 -0.144531 4.5 -0.75 C 3.394531 -1.363281 2.523438 -2.207031 1.890625 -3.28125 C 1.265625 -4.351562 0.953125 -5.5625 0.953125 -6.90625 C 0.953125 -8.238281 1.265625 -9.441406 1.890625 -10.515625 C 2.523438 -11.585938 3.398438 -12.425781 4.515625 -13.03125 C 5.628906 -13.644531 6.878906 -13.953125 8.265625 -13.953125 C 9.335938 -13.953125 10.320312 -13.769531 11.21875 -13.40625 C 12.113281 -13.050781 12.875 -12.519531 13.5 -11.8125 L 12.21875 -10.5625 C 11.1875 -11.65625 9.894531 -12.203125 8.34375 -12.203125 C 7.3125 -12.203125 6.378906 -11.972656 5.546875 -11.515625 C 4.722656 -11.054688 4.078125 -10.421875 3.609375 -9.609375 C 3.148438 -8.804688 2.921875 -7.90625 2.921875 -6.90625 C 2.921875 -5.90625 3.148438 -5 3.609375 -4.1875 C 4.078125 -3.382812 4.722656 -2.75 5.546875 -2.28125 C 6.378906 -1.820312 7.3125 -1.59375 8.34375 -1.59375 C 9.875 -1.59375 11.164062 -2.144531 12.21875 -3.25 L 13.5 -2.015625 C 12.875 -1.304688 12.109375 -0.765625 11.203125 -0.390625 C 10.304688 -0.0234375 9.320312 0.15625 8.25 0.15625 Z M 8.25 0.15625 "/></g></g></g><g fill="#000000" fill-opacity="1"><g transform="translate(94.725414, 325.698084)"><g><path d="M 11.296875 0 L 8.328125 -4.234375 C 7.953125 -4.210938 7.660156 -4.203125 7.453125 -4.203125 L 4.046875 -4.203125 L 4.046875 0 L 2.078125 0 L 2.078125 -13.796875 L 7.453125 -13.796875 C 9.242188 -13.796875 10.648438 -13.367188 11.671875 -12.515625 C 12.703125 -11.660156 13.21875 -10.484375 13.21875 -8.984375 C 13.21875 -7.921875 12.953125 -7.015625 12.421875 -6.265625 C 11.898438 -5.515625 11.148438 -4.972656 10.171875 -4.640625 L 13.453125 0 Z M 7.390625 -5.875 C 8.640625 -5.875 9.59375 -6.144531 10.25 -6.6875 C 10.90625 -7.226562 11.234375 -7.992188 11.234375 -8.984375 C 11.234375 -9.984375 10.90625 -10.75 10.25 -11.28125 C 9.59375 -11.820312 8.640625 -12.09375 7.390625 -12.09375 L 4.046875 -12.09375 L 4.046875 -5.875 Z M 7.390625 -5.875 "/></g></g></g><g fill="#000000" fill-opacity="1"><g transform="translate(116.274485, 325.698084)"><g><path d="M 12.09375 -1.71875 L 12.09375 0 L 2.078125 0 L 2.078125 -13.796875 L 11.8125 -13.796875 L 11.8125 -12.09375 L 4.046875 -12.09375 L 4.046875 -7.84375 L 10.96875 -7.84375 L 10.96875 -6.171875 L 4.046875 -6.171875 L 4.046875 -1.71875 Z M 12.09375 -1.71875 "/></g></g></g><g fill="#000000" fill-opacity="1"><g transform="translate(136.700022, 325.698084)"><g><path d="M 10.859375 -3.453125 L 3.53125 -3.453125 L 2.015625 0 L -0.015625 0 L 6.234375 -13.796875 L 8.1875 -13.796875 L 14.453125 0 L 12.390625 0 Z M 10.171875 -5.03125 L 7.203125 -11.796875 L 4.21875 -5.03125 Z M 10.171875 -5.03125 "/></g></g></g><g fill="#000000" fill-opacity="1"><g transform="translate(158.347647, 325.698084)"><g><path d="M 8.25 0.15625 C 6.863281 0.15625 5.613281 -0.144531 4.5 -0.75 C 3.394531 -1.363281 2.523438 -2.207031 1.890625 -3.28125 C 1.265625 -4.351562 0.953125 -5.5625 0.953125 -6.90625 C 0.953125 -8.238281 1.265625 -9.441406 1.890625 -10.515625 C 2.523438 -11.585938 3.398438 -12.425781 4.515625 -13.03125 C 5.628906 -13.644531 6.878906 -13.953125 8.265625 -13.953125 C 9.335938 -13.953125 10.320312 -13.769531 11.21875 -13.40625 C 12.113281 -13.050781 12.875 -12.519531 13.5 -11.8125 L 12.21875 -10.5625 C 11.1875 -11.65625 9.894531 -12.203125 8.34375 -12.203125 C 7.3125 -12.203125 6.378906 -11.972656 5.546875 -11.515625 C 4.722656 -11.054688 4.078125 -10.421875 3.609375 -9.609375 C 3.148438 -8.804688 2.921875 -7.90625 2.921875 -6.90625 C 2.921875 -5.90625 3.148438 -5 3.609375 -4.1875 C 4.078125 -3.382812 4.722656 -2.75 5.546875 -2.28125 C 6.378906 -1.820312 7.3125 -1.59375 8.34375 -1.59375 C 9.875 -1.59375 11.164062 -2.144531 12.21875 -3.25 L 13.5 -2.015625 C 12.875 -1.304688 12.109375 -0.765625 11.203125 -0.390625 C 10.304688 -0.0234375 9.320312 0.15625 8.25 0.15625 Z M 8.25 0.15625 "/></g></g></g><g fill="#000000" fill-opacity="1"><g transform="translate(179.817867, 325.698084)"><g><path d="M 2.078125 -13.796875 L 4.046875 -13.796875 L 4.046875 0 L 2.078125 0 Z M 2.078125 -13.796875 "/></g></g></g><g fill="#000000" fill-opacity="1"><g transform="translate(193.14744, 325.698084)"><g><path d="M 8.296875 0.15625 C 6.910156 0.15625 5.65625 -0.144531 4.53125 -0.75 C 3.414062 -1.363281 2.539062 -2.207031 1.90625 -3.28125 C 1.269531 -4.363281 0.953125 -5.570312 0.953125 -6.90625 C 0.953125 -8.226562 1.269531 -9.425781 1.90625 -10.5 C 2.539062 -11.582031 3.414062 -12.425781 4.53125 -13.03125 C 5.65625 -13.644531 6.910156 -13.953125 8.296875 -13.953125 C 9.679688 -13.953125 10.929688 -13.644531 12.046875 -13.03125 C 13.160156 -12.425781 14.03125 -11.585938 14.65625 -10.515625 C 15.289062 -9.441406 15.609375 -8.238281 15.609375 -6.90625 C 15.609375 -5.5625 15.289062 -4.351562 14.65625 -3.28125 C 14.03125 -2.207031 13.160156 -1.363281 12.046875 -0.75 C 10.929688 -0.144531 9.679688 0.15625 8.296875 0.15625 Z M 8.296875 -1.59375 C 9.304688 -1.59375 10.21875 -1.820312 11.03125 -2.28125 C 11.84375 -2.75 12.476562 -3.382812 12.9375 -4.1875 C 13.40625 -5 13.640625 -5.90625 13.640625 -6.90625 C 13.640625 -7.90625 13.40625 -8.804688 12.9375 -9.609375 C 12.476562 -10.421875 11.84375 -11.054688 11.03125 -11.515625 C 10.21875 -11.972656 9.304688 -12.203125 8.296875 -12.203125 C 7.285156 -12.203125 6.367188 -11.972656 5.546875 -11.515625 C 4.722656 -11.054688 4.078125 -10.421875 3.609375 -9.609375 C 3.148438 -8.804688 2.921875 -7.90625 2.921875 -6.90625 C 2.921875 -5.90625 3.148438 -5 3.609375 -4.1875 C 4.078125 -3.382812 4.722656 -2.75 5.546875 -2.28125 C 6.367188 -1.820312 7.285156 -1.59375 8.296875 -1.59375 Z M 8.296875 -1.59375 "/></g></g></g><g fill="#000000" fill-opacity="1"><g transform="translate(216.923856, 325.698084)"><g><path d="M 13.9375 -13.796875 L 13.9375 0 L 12.328125 0 L 4.046875 -10.296875 L 4.046875 0 L 2.078125 0 L 2.078125 -13.796875 L 3.6875 -13.796875 L 11.96875 -3.515625 L 11.96875 -13.796875 Z M 13.9375 -13.796875 "/></g></g></g><g fill="#000000" fill-opacity="1"><g transform="translate(240.148368, 325.698084)"><g><path d="M 12.09375 -1.71875 L 12.09375 0 L 2.078125 0 L 2.078125 -13.796875 L 11.8125 -13.796875 L 11.8125 -12.09375 L 4.046875 -12.09375 L 4.046875 -7.84375 L 10.96875 -7.84375 L 10.96875 -6.171875 L 4.046875 -6.171875 L 4.046875 -1.71875 Z M 12.09375 -1.71875 "/></g></g></g><g fill="#000000" fill-opacity="1"><g transform="translate(260.573908, 325.698084)"><g><path d="M 6.09375 0.15625 C 5.050781 0.15625 4.046875 -0.00390625 3.078125 -0.328125 C 2.117188 -0.648438 1.363281 -1.066406 0.8125 -1.578125 L 1.53125 -3.109375 C 2.0625 -2.640625 2.738281 -2.253906 3.5625 -1.953125 C 4.382812 -1.660156 5.226562 -1.515625 6.09375 -1.515625 C 7.238281 -1.515625 8.09375 -1.707031 8.65625 -2.09375 C 9.21875 -2.488281 9.5 -3.003906 9.5 -3.640625 C 9.5 -4.117188 9.34375 -4.503906 9.03125 -4.796875 C 8.726562 -5.097656 8.347656 -5.328125 7.890625 -5.484375 C 7.441406 -5.640625 6.800781 -5.816406 5.96875 -6.015625 C 4.9375 -6.265625 4.097656 -6.515625 3.453125 -6.765625 C 2.816406 -7.015625 2.269531 -7.398438 1.8125 -7.921875 C 1.363281 -8.441406 1.140625 -9.140625 1.140625 -10.015625 C 1.140625 -10.753906 1.332031 -11.414062 1.71875 -12 C 2.113281 -12.59375 2.703125 -13.066406 3.484375 -13.421875 C 4.273438 -13.773438 5.253906 -13.953125 6.421875 -13.953125 C 7.242188 -13.953125 8.046875 -13.847656 8.828125 -13.640625 C 9.617188 -13.429688 10.296875 -13.128906 10.859375 -12.734375 L 10.21875 -11.15625 C 9.632812 -11.53125 9.015625 -11.8125 8.359375 -12 C 7.703125 -12.1875 7.054688 -12.28125 6.421875 -12.28125 C 5.304688 -12.28125 4.46875 -12.078125 3.90625 -11.671875 C 3.351562 -11.265625 3.078125 -10.738281 3.078125 -10.09375 C 3.078125 -9.625 3.234375 -9.238281 3.546875 -8.9375 C 3.859375 -8.644531 4.25 -8.414062 4.71875 -8.25 C 5.1875 -8.082031 5.820312 -7.910156 6.625 -7.734375 C 7.664062 -7.484375 8.5 -7.234375 9.125 -6.984375 C 9.757812 -6.734375 10.300781 -6.347656 10.75 -5.828125 C 11.207031 -5.316406 11.4375 -4.628906 11.4375 -3.765625 C 11.4375 -3.046875 11.238281 -2.382812 10.84375 -1.78125 C 10.445312 -1.1875 9.847656 -0.710938 9.046875 -0.359375 C 8.242188 -0.015625 7.257812 0.15625 6.09375 0.15625 Z M 6.09375 0.15625 "/></g></g></g><g fill="#000000" fill-opacity="1"><g transform="translate(280.032527, 325.698084)"><g/></g></g></svg>