<svg xmlns="http://www.w3.org/2000/svg" xmlns:xlink="http://www.w3.org/1999/xlink" width="500" zoomAndPan="magnify" viewBox="0 0 375 374.999991" height="500" preserveAspectRatio="xMidYMid meet" version="1.0"><defs><g/><clipPath id="id1"><path d="M 73 95 L 299 95 L 299 278 L 73 278 Z M 73 95 " clip-rule="nonzero"/></clipPath><clipPath id="id2"><path d="M 298.144531 299.871094 L 57.101562 275.734375 L 77.203125 74.988281 L 318.25 99.125 Z M 298.144531 299.871094 " clip-rule="nonzero"/></clipPath><clipPath id="id3"><path d="M 298.144531 299.871094 L 57.101562 275.734375 L 77.203125 74.988281 L 318.25 99.125 Z M 298.144531 299.871094 " clip-rule="nonzero"/></clipPath></defs><rect x="-37.5" width="450" fill="#ffffff" y="-37.499999" height="449.999989" fill-opacity="1"/><rect x="-37.5" width="450" fill="#ffffff" y="-37.499999" height="449.999989" fill-opacity="1"/><rect x="-37.5" width="450" fill="#ffffff" y="-37.499999" height="449.999989" fill-opacity="1"/><rect x="-37.5" width="450" fill="#ffffff" y="-37.499999" height="449.999989" fill-opacity="1"/><g clip-path="url(#id1)"><g clip-path="url(#id2)"><g clip-path="url(#id3)"><path fill="#ffde59" d="M 186.277344 269.253906 C 156.144531 276.945312 131.542969 283.226562 117.253906 270.308594 C 102.523438 257 115.15625 238.121094 98.183594 202.644531 C 87.464844 180.238281 79.128906 180.882812 74.972656 163.125 C 70.246094 142.929688 74.554688 114.453125 93.035156 101.835938 C 107.253906 92.132812 124.304688 95.601562 144.28125 99.664062 C 188.171875 108.589844 195.144531 128.765625 221.695312 127.339844 C 254.4375 125.585938 264.550781 93.789062 279.507812 99.257812 C 300.792969 107.039062 309.789062 182.179688 273.363281 226.832031 C 252.550781 252.332031 223.582031 259.726562 186.277344 269.253906 Z M 186.277344 269.253906 " fill-opacity="1" fill-rule="nonzero"/></g></g></g><g fill="#000000" fill-opacity="1"><g transform="translate(53.859376, 207.374986)"><g><path d="M 13.207031 1.804688 C 19.765625 1.804688 29.648438 -3.800781 34.304688 -7.980469 C 38.011719 -11.117188 41.242188 -14.730469 44.375 -18.433594 C 44.472656 -18.625 44.660156 -18.816406 44.757812 -19.003906 C 44.851562 -19.101562 45.042969 -19.289062 45.136719 -19.480469 C 45.421875 -20.050781 45.421875 -20.527344 44.945312 -20.90625 C 44.757812 -21.09375 44.472656 -21.191406 44.1875 -21.191406 C 43.996094 -21.191406 43.804688 -21.09375 43.519531 -21 C 43.238281 -20.714844 42.855469 -20.335938 42.570312 -20.050781 C 42.285156 -19.671875 41.90625 -19.289062 41.621094 -19.003906 C 34.96875 -11.117188 28.03125 -4.941406 18.246094 -1.617188 C 16.4375 -0.949219 14.824219 -0.664062 13.398438 -0.664062 C 9.3125 -0.761719 6.175781 -2.28125 4.277344 -5.988281 C 2.46875 -9.3125 2.089844 -12.734375 2.46875 -16.25 C 4.277344 -31.546875 11.023438 -47.039062 24.800781 -54.542969 C 26.605469 -55.398438 28.316406 -56.066406 30.027344 -56.539062 C 30.691406 -56.636719 31.167969 -56.730469 31.644531 -56.730469 C 34.019531 -56.730469 35.253906 -55.304688 35.445312 -52.453125 C 35.632812 -51.21875 35.539062 -49.886719 35.0625 -48.460938 C 33.640625 -43.140625 29.835938 -37.726562 26.511719 -33.449219 C 26.035156 -32.972656 25.941406 -32.59375 26.132812 -32.117188 C 26.226562 -31.929688 26.511719 -31.832031 26.796875 -31.832031 C 27.460938 -31.832031 28.03125 -32.308594 28.414062 -32.972656 C 32.214844 -37.820312 36.109375 -42.953125 37.535156 -49.03125 C 38.011719 -50.839844 38.011719 -52.453125 37.628906 -53.972656 C 36.871094 -57.773438 34.875 -59.199219 31.074219 -59.199219 C 22.617188 -58.25 13.492188 -50.269531 9.121094 -43.140625 C 4.75 -36.488281 0 -23.28125 0 -15.203125 C -0.09375 -10.546875 0.664062 -6.84375 2.851562 -3.515625 C 5.132812 0.191406 9.027344 1.804688 13.207031 1.804688 Z M 13.207031 1.804688 "/></g></g></g><g fill="#000000" fill-opacity="1"><g transform="translate(94.431059, 207.374986)"><g><path d="M 14.253906 10.167969 C 29.457031 9.40625 39.71875 -10.644531 44.851562 -24.328125 C 46.371094 -28.507812 47.226562 -32.878906 47.609375 -37.34375 C 47.894531 -40.859375 47.132812 -44.1875 45.136719 -47.132812 C 43.519531 -49.414062 41.527344 -51.027344 38.582031 -51.503906 C 37.726562 -51.597656 36.964844 -51.695312 36.203125 -51.695312 C 29.554688 -51.695312 24.230469 -45.992188 21.476562 -40.195312 C 20.714844 -38.582031 20.527344 -36.871094 20.242188 -35.0625 C 20.144531 -34.398438 20.621094 -33.828125 21.285156 -33.734375 C 21.761719 -33.734375 22.140625 -34.019531 22.425781 -34.589844 C 22.519531 -34.875 22.710938 -35.253906 22.804688 -35.730469 C 23.375 -40.480469 28.601562 -47.511719 33.257812 -48.746094 C 34.492188 -49.03125 35.539062 -49.222656 36.394531 -49.222656 C 39.910156 -49.222656 42.382812 -47.511719 43.902344 -44.1875 C 44.945312 -42 45.328125 -39.816406 45.136719 -37.628906 C 44.757812 -32.785156 43.332031 -26.703125 40.859375 -20.621094 C 39.625 -17.484375 38.105469 -14.445312 36.488281 -11.402344 C 33.164062 -5.320312 29.078125 -0.285156 24.515625 3.515625 C 22.140625 5.320312 19.671875 6.652344 17.105469 7.316406 C 15.679688 7.601562 14.539062 7.792969 13.683594 7.792969 C 8.171875 7.792969 5.035156 2.660156 3.707031 -2.46875 C 1.519531 -9.976562 2.089844 -17.292969 4.65625 -24.515625 C 7.980469 -34.113281 13.398438 -42.476562 20.621094 -49.792969 C 23.1875 -52.359375 25.371094 -55.019531 29.269531 -55.398438 C 29.742188 -55.398438 30.027344 -55.96875 30.027344 -56.636719 C 29.933594 -57.300781 29.554688 -57.585938 29.078125 -57.679688 C 28.03125 -57.679688 27.746094 -57.585938 26.703125 -57.300781 C 24.800781 -56.636719 23.089844 -55.496094 21.476562 -53.972656 C 13.113281 -46.277344 6.746094 -37.25 2.660156 -26.511719 C 0.855469 -21.855469 -0.285156 -17.007812 0 -11.972656 C -0.09375 -8.265625 0.285156 -4.941406 1.332031 -1.519531 C 3.136719 4.941406 7.03125 10.167969 14.253906 10.167969 Z M 14.253906 10.167969 "/></g></g></g><g fill="#000000" fill-opacity="1"><g transform="translate(144.029223, 207.374986)"><g><path d="M 1.140625 10.359375 C 1.804688 10.359375 2.375 10.074219 2.660156 9.597656 C 3.421875 8.363281 3.609375 7.125 3.894531 5.703125 L 7.03125 -8.550781 C 7.125 -9.027344 7.316406 -9.40625 7.410156 -9.882812 C 7.507812 -10.359375 7.695312 -10.738281 8.171875 -11.117188 C 10.074219 -10.832031 11.878906 -9.976562 13.683594 -9.21875 C 14.730469 -8.835938 15.679688 -8.457031 16.722656 -8.078125 C 17.675781 -7.601562 18.71875 -7.222656 19.765625 -6.84375 C 21.570312 -6.175781 23.472656 -5.890625 25.371094 -5.890625 C 29.457031 -5.890625 34.398438 -7.507812 37.726562 -10.074219 C 41.050781 -12.636719 44.28125 -15.109375 47.609375 -17.675781 C 48.273438 -18.054688 48.652344 -18.53125 49.128906 -19.195312 C 49.316406 -19.480469 49.414062 -19.859375 49.414062 -20.335938 C 49.507812 -20.808594 48.9375 -21.378906 48.460938 -21.378906 C 48.367188 -21.378906 48.367188 -21.378906 48.367188 -21.378906 C 48.273438 -21.285156 48.273438 -21.285156 48.175781 -21.285156 C 47.988281 -21.191406 47.703125 -21.09375 47.324219 -20.808594 C 45.707031 -19.386719 44.089844 -17.960938 42.382812 -16.722656 C 40.574219 -15.394531 38.863281 -14.0625 37.15625 -12.734375 C 33.828125 -10.167969 29.457031 -8.363281 25.371094 -8.363281 C 24.136719 -8.363281 22.902344 -8.457031 21.664062 -8.835938 C 18.910156 -9.597656 16.25 -10.832031 13.589844 -12.066406 C 13.398438 -12.164062 13.304688 -12.257812 13.304688 -12.542969 C 13.304688 -12.734375 13.398438 -12.921875 13.589844 -13.019531 C 13.875 -13.113281 14.160156 -13.304688 14.445312 -13.492188 C 14.730469 -13.589844 14.917969 -13.777344 15.203125 -13.875 C 25.464844 -19.480469 33.542969 -26.890625 38.863281 -37.441406 C 39.71875 -39.246094 40.480469 -41.050781 40.957031 -42.953125 C 41.429688 -44.566406 41.527344 -46.183594 41.242188 -47.894531 C 40.957031 -49.886719 39.71875 -51.027344 37.726562 -51.21875 C 27.367188 -51.21875 17.578125 -38.199219 12.828125 -29.171875 C 12.542969 -30.027344 12.542969 -30.789062 12.828125 -31.546875 C 13.113281 -32.214844 13.304688 -32.972656 13.492188 -33.734375 C 15.394531 -41.429688 17.484375 -49.222656 19.480469 -56.921875 C 19.765625 -57.679688 20.050781 -58.535156 19.765625 -59.390625 C 19.671875 -59.867188 19.386719 -60.152344 19.003906 -60.246094 C 18.910156 -60.246094 18.910156 -60.246094 18.910156 -60.339844 C 18.816406 -60.339844 18.816406 -60.339844 18.71875 -60.339844 C 18.433594 -60.339844 18.246094 -60.152344 17.960938 -59.769531 C 17.578125 -59.199219 17.292969 -58.628906 17.199219 -57.964844 C 17.007812 -57.300781 16.820312 -56.636719 16.628906 -55.96875 C 14.445312 -46.941406 12.257812 -38.105469 9.691406 -29.269531 C 8.457031 -24.992188 7.410156 -20.714844 6.367188 -16.4375 C 5.320312 -12.164062 3.992188 -7.980469 2.375 -3.894531 C 0.949219 -0.476562 0.378906 3.039062 0.09375 6.746094 C 0 7.601562 -0.191406 8.457031 0.09375 9.21875 C 0.285156 9.789062 0.664062 10.167969 1.140625 10.359375 Z M 9.789062 -14.539062 C 9.40625 -14.539062 8.933594 -14.917969 9.21875 -15.394531 C 13.589844 -26.511719 21.664062 -42.761719 32.878906 -47.703125 C 34.019531 -48.175781 35.160156 -48.746094 36.394531 -48.746094 C 38.199219 -48.746094 38.863281 -48.273438 38.960938 -46.46875 L 38.960938 -45.898438 C 38.675781 -40.574219 33.355469 -32.308594 29.835938 -28.507812 C 24.707031 -22.902344 17.484375 -16.535156 10.074219 -14.539062 Z M 9.789062 -14.539062 "/></g></g></g><g fill="#000000" fill-opacity="1"><g transform="translate(188.686573, 207.374986)"><g><path d="M 1.140625 8.265625 C 1.804688 8.265625 2.1875 8.171875 2.660156 7.886719 C 4.5625 7.316406 6.460938 6.84375 8.363281 6.460938 C 11.972656 5.988281 19.386719 4.847656 22.617188 3.230469 C 23.660156 2.753906 23.945312 1.902344 23.472656 1.234375 C 23.375 0.949219 23.089844 0.761719 22.617188 0.761719 C 22.140625 0.761719 21.855469 0.855469 21.570312 0.949219 C 18.625 2.089844 15.679688 2.753906 12.542969 3.230469 C 12.351562 3.324219 12.066406 3.324219 11.78125 3.324219 C 11.117188 3.324219 10.832031 2.753906 11.117188 1.519531 C 15.585938 -14.917969 20.714844 -30.597656 26.035156 -46.847656 C 26.511719 -48.367188 27.460938 -49.222656 28.984375 -49.507812 C 32.785156 -50.554688 36.585938 -51.503906 40.386719 -52.546875 C 41.429688 -52.832031 42.191406 -53.117188 43.046875 -53.59375 C 43.519531 -53.878906 43.804688 -54.257812 43.710938 -54.828125 C 43.710938 -55.304688 43.140625 -55.96875 42.761719 -55.875 C 42.285156 -55.78125 41.90625 -55.589844 41.621094 -55.496094 C 39.625 -54.734375 37.535156 -54.070312 35.445312 -53.59375 C 33.257812 -53.117188 31.167969 -52.546875 29.078125 -51.980469 C 28.699219 -51.980469 28.222656 -52.074219 28.222656 -52.546875 C 28.128906 -53.214844 27.84375 -53.878906 27.175781 -53.972656 L 26.890625 -53.972656 C 26.605469 -53.972656 26.320312 -53.878906 26.132812 -53.59375 C 25.941406 -53.308594 25.75 -53.117188 25.5625 -52.832031 L 25.277344 -52.265625 C 24.992188 -51.21875 24.230469 -50.648438 22.996094 -50.457031 C 20.335938 -49.886719 11.496094 -47.226562 10.074219 -44.851562 C 9.789062 -44.375 9.882812 -43.996094 10.167969 -43.710938 C 10.359375 -43.425781 10.644531 -43.332031 11.023438 -43.332031 C 11.308594 -43.332031 11.59375 -43.425781 11.78125 -43.617188 C 15.109375 -46.183594 18.910156 -46.847656 22.710938 -47.894531 L 22.996094 -47.894531 C 23.472656 -47.894531 23.566406 -47.703125 23.472656 -47.226562 C 23.375 -46.753906 23.28125 -46.371094 23.1875 -45.992188 C 23.089844 -45.613281 22.902344 -45.230469 22.804688 -44.851562 C 21.664062 -41.429688 20.527344 -38.105469 19.480469 -34.777344 C 18.339844 -31.453125 17.199219 -28.128906 16.152344 -24.707031 C 14.730469 -20.429688 13.398438 -16.25 12.351562 -11.972656 C 11.214844 -7.695312 9.976562 -3.324219 8.742188 0.949219 L 8.078125 3.039062 C 7.886719 3.707031 7.507812 4.085938 6.84375 4.277344 C 5.320312 4.5625 3.800781 4.941406 2.28125 5.417969 C 1.710938 5.605469 1.046875 5.890625 0.378906 6.367188 C 0 6.558594 -0.09375 6.9375 0 7.507812 C 0.285156 8.078125 0.664062 8.363281 1.140625 8.265625 Z M 1.140625 8.265625 "/></g></g></g><g fill="#000000" fill-opacity="1"><g transform="translate(217.191263, 207.374986)"><g><path d="M 2.089844 14.539062 C 2.375 14.539062 2.660156 14.539062 2.753906 14.445312 C 3.515625 14.253906 4.179688 13.875 4.847656 13.207031 C 5.320312 12.734375 5.796875 12.164062 6.273438 11.6875 C 6.746094 11.214844 7.125 10.644531 7.507812 10.167969 C 8.363281 8.933594 9.21875 7.601562 10.074219 6.273438 C 10.929688 4.941406 11.6875 3.609375 12.542969 2.28125 C 15.203125 -1.902344 17.675781 -6.175781 20.242188 -10.453125 C 23.945312 -16.535156 28.03125 -23.375 33.449219 -28.03125 C 34.210938 -28.699219 34.96875 -29.171875 35.730469 -29.648438 C 35.824219 -29.742188 35.917969 -29.742188 36.109375 -29.742188 C 36.585938 -29.742188 36.871094 -29.554688 36.964844 -29.078125 C 37.058594 -28.601562 37.058594 -28.222656 37.15625 -27.84375 C 37.15625 -27.460938 37.15625 -27.082031 37.25 -26.605469 L 37.25 -21.285156 C 36.964844 -17.960938 37.058594 -15.015625 37.535156 -11.6875 C 38.390625 -8.171875 39.148438 -4.847656 42.953125 -4.847656 C 43.046875 -4.847656 43.238281 -4.847656 43.425781 -4.941406 C 43.519531 -4.941406 43.710938 -4.941406 43.902344 -4.941406 C 45.328125 -5.226562 46.65625 -5.796875 47.894531 -6.652344 C 50.269531 -8.265625 58.25 -17.199219 59.296875 -19.859375 C 59.390625 -20.335938 59.296875 -20.714844 58.820312 -20.90625 C 58.628906 -21.09375 58.441406 -21.191406 58.15625 -21.191406 C 57.488281 -21.191406 56.730469 -19.957031 56.445312 -19.574219 C 54.542969 -17.199219 48.558594 -10.074219 46.753906 -8.835938 C 45.707031 -8.171875 44.757812 -7.507812 43.332031 -7.410156 C 42.285156 -7.410156 41.714844 -7.507812 41.050781 -8.550781 C 40.386719 -9.789062 40.195312 -11.023438 39.910156 -12.449219 C 39.433594 -16.152344 39.339844 -19.574219 39.625 -23.28125 C 39.71875 -24.328125 39.71875 -25.371094 39.71875 -26.417969 C 39.71875 -27.460938 39.625 -28.507812 39.433594 -29.554688 C 39.054688 -31.453125 38.105469 -32.402344 36.585938 -32.402344 C 32.878906 -32.402344 26.703125 -24.613281 24.613281 -21.761719 C 21.949219 -18.054688 19.574219 -14.160156 17.199219 -10.261719 L 8.933594 3.609375 C 7.316406 6.175781 5.703125 8.648438 3.515625 10.832031 C 3.324219 11.023438 3.136719 11.023438 3.039062 10.929688 C 2.753906 10.929688 2.660156 10.832031 2.660156 10.546875 C 2.753906 10.074219 2.753906 9.691406 2.753906 9.3125 C 2.753906 8.835938 2.851562 8.457031 2.945312 8.078125 C 3.421875 6.460938 3.800781 4.75 4.179688 3.136719 C 4.5625 1.425781 4.941406 -0.285156 5.417969 -1.902344 C 8.742188 -13.777344 13.207031 -24.898438 18.433594 -36.203125 L 25.085938 -50.839844 C 25.277344 -51.21875 25.464844 -51.597656 25.65625 -51.980469 C 25.847656 -52.359375 25.941406 -52.738281 25.847656 -53.214844 C 25.75 -53.6875 25.5625 -53.878906 25.371094 -53.972656 C 25.085938 -54.070312 24.992188 -54.164062 24.898438 -54.164062 C 24.707031 -54.164062 24.515625 -54.070312 24.230469 -53.972656 C 23.851562 -53.6875 23.566406 -53.308594 23.472656 -52.929688 C 23.28125 -52.546875 23.089844 -52.167969 22.902344 -51.882812 C 21.285156 -48.175781 19.574219 -44.660156 17.960938 -41.144531 C 10.644531 -25.5625 4.277344 -9.503906 0.570312 7.316406 C 0.191406 9.21875 -0.191406 11.023438 0.191406 12.921875 C 0.378906 13.96875 1.046875 14.539062 2.089844 14.539062 Z M 2.089844 14.539062 "/></g></g></g><g fill="#000000" fill-opacity="1"><g transform="translate(271.730242, 207.374986)"><g><path d="M 2.945312 9.027344 C 5.417969 9.027344 9.027344 3.515625 10.359375 1.425781 C 12.734375 -2.46875 15.015625 -6.273438 17.292969 -10.359375 L 26.417969 -25.847656 C 26.988281 -26.890625 27.558594 -27.367188 28.03125 -27.367188 C 28.316406 -27.367188 28.792969 -27.273438 29.457031 -27.082031 C 32.785156 -26.035156 36.203125 -25.179688 39.71875 -25.085938 C 40.574219 -25.085938 40.957031 -24.707031 40.859375 -23.945312 C 40.859375 -23.660156 40.859375 -23.28125 40.765625 -22.996094 C 40.671875 -22.710938 40.671875 -22.332031 40.671875 -22.046875 C 40.003906 -17.199219 39.53125 -12.351562 39.816406 -7.507812 C 39.910156 -4.179688 40.386719 -0.855469 41.527344 2.28125 C 42.570312 4.65625 44.089844 6.273438 46.085938 7.125 C 46.5625 7.410156 47.039062 7.507812 47.609375 7.507812 L 48.175781 7.507812 C 49.03125 7.410156 49.601562 6.460938 49.507812 5.417969 C 49.414062 4.65625 48.9375 3.992188 48.273438 3.992188 C 48.082031 3.992188 47.894531 3.992188 47.796875 4.085938 C 47.417969 4.277344 47.039062 4.371094 46.753906 4.371094 C 44.566406 4.371094 43.140625 -0.476562 42.855469 -2.28125 C 42.382812 -4.65625 42.097656 -7.125 42.191406 -9.691406 C 42.476562 -22.332031 45.136719 -34.210938 48.082031 -46.46875 C 48.558594 -48.460938 48.9375 -50.363281 49.316406 -52.546875 C 49.601562 -53.59375 49.699219 -54.734375 49.222656 -55.875 C 48.84375 -56.730469 48.273438 -57.109375 47.417969 -57.109375 C 47.324219 -57.109375 47.039062 -57.015625 46.65625 -56.921875 C 43.710938 -55.304688 36.773438 -46.5625 34.96875 -43.710938 C 33.734375 -41.714844 32.402344 -39.71875 31.074219 -37.726562 C 29.742188 -35.730469 28.414062 -33.734375 27.082031 -31.738281 C 26.511719 -30.882812 26.035156 -30.503906 25.75 -30.503906 C 25.65625 -30.503906 25.277344 -30.597656 24.613281 -30.691406 C 23.566406 -30.976562 22.425781 -31.167969 21.378906 -31.359375 C 20.335938 -31.546875 19.195312 -31.738281 18.148438 -31.929688 C 17.484375 -32.023438 16.722656 -32.117188 16.058594 -32.117188 C 13.875 -32.117188 11.214844 -31.644531 9.789062 -29.835938 C 9.027344 -28.984375 8.933594 -27.9375 9.40625 -26.890625 C 9.976562 -25.847656 10.832031 -25.371094 11.878906 -25.371094 C 12.164062 -25.5625 12.351562 -25.65625 12.351562 -25.65625 C 12.449219 -25.847656 12.449219 -26.035156 12.257812 -26.226562 C 12.164062 -26.320312 12.164062 -26.417969 12.066406 -26.417969 C 11.972656 -26.417969 11.78125 -26.511719 11.6875 -26.605469 C 10.261719 -27.84375 10.359375 -28.792969 11.972656 -29.554688 C 13.398438 -30.21875 14.160156 -30.21875 15.773438 -30.21875 C 18.71875 -30.21875 21.664062 -29.648438 24.613281 -28.414062 C 24.613281 -27.9375 24.515625 -27.652344 24.328125 -27.367188 C 24.136719 -27.082031 23.945312 -26.796875 23.851562 -26.511719 L 12.449219 -6.84375 C 11.402344 -5.132812 10.453125 -3.421875 9.503906 -1.804688 C 8.457031 -0.09375 7.410156 1.519531 6.175781 3.136719 C 5.320312 4.277344 4.5625 5.226562 3.800781 5.988281 C 3.609375 6.175781 3.421875 6.273438 3.136719 6.273438 C 2.753906 6.273438 2.46875 6.082031 2.375 5.605469 C 1.996094 3.609375 2.089844 1.710938 2.566406 0.09375 C 2.753906 -0.664062 3.136719 -1.046875 3.800781 -1.140625 C 4.179688 -1.234375 4.65625 -1.425781 4.5625 -1.902344 C 4.464844 -2.375 4.179688 -2.753906 3.515625 -2.945312 C 2.375 -2.945312 1.902344 -2.753906 1.234375 -1.710938 C -0.191406 1.234375 -0.378906 4.277344 0.664062 7.316406 L 0.949219 7.886719 C 1.425781 8.648438 2.089844 9.027344 2.945312 9.027344 Z M 38.675781 -27.652344 C 35.632812 -27.652344 32.785156 -28.507812 29.835938 -29.363281 C 29.171875 -29.457031 28.984375 -29.835938 29.269531 -30.503906 C 29.363281 -30.789062 29.554688 -30.976562 29.742188 -31.261719 C 29.835938 -31.453125 30.027344 -31.644531 30.121094 -31.832031 C 33.070312 -36.300781 35.917969 -40.574219 38.960938 -45.042969 C 39.910156 -46.46875 40.957031 -47.796875 42.191406 -49.03125 C 43.332031 -50.269531 44.472656 -51.503906 45.613281 -52.738281 C 45.898438 -53.117188 46.085938 -53.214844 46.371094 -53.117188 C 46.65625 -53.023438 46.847656 -52.929688 46.847656 -52.738281 C 46.847656 -52.546875 46.847656 -52.359375 46.753906 -52.167969 C 46.46875 -50.742188 46.277344 -49.601562 45.898438 -48.175781 C 44.472656 -42 43.140625 -35.824219 41.714844 -29.742188 C 41.335938 -27.84375 41.144531 -27.746094 39.339844 -27.652344 Z M 38.675781 -27.652344 "/></g></g></g><g fill="#000000" fill-opacity="1"><g transform="translate(117.923223, 241.172034)"><g><path d="M 5.4375 0.078125 C 4.53125 0.078125 3.710938 -0.117188 2.984375 -0.515625 C 2.265625 -0.921875 1.695312 -1.472656 1.28125 -2.171875 C 0.875 -2.878906 0.671875 -3.671875 0.671875 -4.546875 C 0.671875 -5.421875 0.875 -6.210938 1.28125 -6.921875 C 1.695312 -7.628906 2.269531 -8.179688 3 -8.578125 C 3.726562 -8.972656 4.546875 -9.171875 5.453125 -9.171875 C 6.128906 -9.171875 6.75 -9.054688 7.3125 -8.828125 C 7.882812 -8.609375 8.375 -8.285156 8.78125 -7.859375 L 8.15625 -7.234375 C 7.445312 -7.953125 6.550781 -8.3125 5.46875 -8.3125 C 4.75 -8.3125 4.09375 -8.144531 3.5 -7.8125 C 2.914062 -7.488281 2.457031 -7.039062 2.125 -6.46875 C 1.789062 -5.894531 1.625 -5.253906 1.625 -4.546875 C 1.625 -3.835938 1.789062 -3.195312 2.125 -2.625 C 2.457031 -2.050781 2.914062 -1.597656 3.5 -1.265625 C 4.09375 -0.941406 4.75 -0.78125 5.46875 -0.78125 C 6.5625 -0.78125 7.457031 -1.144531 8.15625 -1.875 L 8.78125 -1.265625 C 8.375 -0.828125 7.882812 -0.492188 7.3125 -0.265625 C 6.738281 -0.0351562 6.113281 0.078125 5.4375 0.078125 Z M 5.4375 0.078125 "/></g></g></g><g fill="#000000" fill-opacity="1"><g transform="translate(132.025376, 241.172034)"><g><path d="M 7.703125 0 L 5.609375 -2.921875 C 5.378906 -2.898438 5.140625 -2.890625 4.890625 -2.890625 L 2.4375 -2.890625 L 2.4375 0 L 1.484375 0 L 1.484375 -9.09375 L 4.890625 -9.09375 C 6.046875 -9.09375 6.953125 -8.816406 7.609375 -8.265625 C 8.273438 -7.710938 8.609375 -6.953125 8.609375 -5.984375 C 8.609375 -5.265625 8.425781 -4.660156 8.0625 -4.171875 C 7.707031 -3.679688 7.195312 -3.332031 6.53125 -3.125 L 8.75 0 Z M 4.859375 -3.703125 C 5.765625 -3.703125 6.453125 -3.898438 6.921875 -4.296875 C 7.398438 -4.703125 7.640625 -5.265625 7.640625 -5.984375 C 7.640625 -6.710938 7.398438 -7.273438 6.921875 -7.671875 C 6.453125 -8.066406 5.765625 -8.265625 4.859375 -8.265625 L 2.4375 -8.265625 L 2.4375 -3.703125 Z M 4.859375 -3.703125 "/></g></g></g><g fill="#000000" fill-opacity="1"><g transform="translate(146.179519, 241.172034)"><g><path d="M 7.921875 -0.828125 L 7.921875 0 L 1.484375 0 L 1.484375 -9.09375 L 7.71875 -9.09375 L 7.71875 -8.265625 L 2.4375 -8.265625 L 2.4375 -5.03125 L 7.15625 -5.03125 L 7.15625 -4.21875 L 2.4375 -4.21875 L 2.4375 -0.828125 Z M 7.921875 -0.828125 "/></g></g></g><g fill="#000000" fill-opacity="1"><g transform="translate(159.631876, 241.172034)"><g><path d="M 7.1875 -2.4375 L 2.125 -2.4375 L 1.03125 0 L 0.03125 0 L 4.1875 -9.09375 L 5.140625 -9.09375 L 9.296875 0 L 8.28125 0 Z M 6.84375 -3.21875 L 4.65625 -8.09375 L 2.46875 -3.21875 Z M 6.84375 -3.21875 "/></g></g></g><g fill="#000000" fill-opacity="1"><g transform="translate(173.70804, 241.172034)"><g><path d="M 5.4375 0.078125 C 4.53125 0.078125 3.710938 -0.117188 2.984375 -0.515625 C 2.265625 -0.921875 1.695312 -1.472656 1.28125 -2.171875 C 0.875 -2.878906 0.671875 -3.671875 0.671875 -4.546875 C 0.671875 -5.421875 0.875 -6.210938 1.28125 -6.921875 C 1.695312 -7.628906 2.269531 -8.179688 3 -8.578125 C 3.726562 -8.972656 4.546875 -9.171875 5.453125 -9.171875 C 6.128906 -9.171875 6.75 -9.054688 7.3125 -8.828125 C 7.882812 -8.609375 8.375 -8.285156 8.78125 -7.859375 L 8.15625 -7.234375 C 7.445312 -7.953125 6.550781 -8.3125 5.46875 -8.3125 C 4.75 -8.3125 4.09375 -8.144531 3.5 -7.8125 C 2.914062 -7.488281 2.457031 -7.039062 2.125 -6.46875 C 1.789062 -5.894531 1.625 -5.253906 1.625 -4.546875 C 1.625 -3.835938 1.789062 -3.195312 2.125 -2.625 C 2.457031 -2.050781 2.914062 -1.597656 3.5 -1.265625 C 4.09375 -0.941406 4.75 -0.78125 5.46875 -0.78125 C 6.5625 -0.78125 7.457031 -1.144531 8.15625 -1.875 L 8.78125 -1.265625 C 8.375 -0.828125 7.882812 -0.492188 7.3125 -0.265625 C 6.738281 -0.0351562 6.113281 0.078125 5.4375 0.078125 Z M 5.4375 0.078125 "/></g></g></g><g fill="#000000" fill-opacity="1"><g transform="translate(187.810193, 241.172034)"><g><path d="M 1.484375 -9.09375 L 2.4375 -9.09375 L 2.4375 0 L 1.484375 0 Z M 1.484375 -9.09375 "/></g></g></g><g fill="#000000" fill-opacity="1"><g transform="translate(196.493008, 241.172034)"><g><path d="M 5.453125 0.078125 C 4.554688 0.078125 3.738281 -0.117188 3 -0.515625 C 2.269531 -0.921875 1.695312 -1.472656 1.28125 -2.171875 C 0.875 -2.878906 0.671875 -3.671875 0.671875 -4.546875 C 0.671875 -5.421875 0.875 -6.207031 1.28125 -6.90625 C 1.695312 -7.613281 2.269531 -8.164062 3 -8.5625 C 3.738281 -8.96875 4.554688 -9.171875 5.453125 -9.171875 C 6.359375 -9.171875 7.171875 -8.972656 7.890625 -8.578125 C 8.617188 -8.179688 9.191406 -7.628906 9.609375 -6.921875 C 10.023438 -6.210938 10.234375 -5.421875 10.234375 -4.546875 C 10.234375 -3.671875 10.023438 -2.878906 9.609375 -2.171875 C 9.191406 -1.472656 8.617188 -0.921875 7.890625 -0.515625 C 7.171875 -0.117188 6.359375 0.078125 5.453125 0.078125 Z M 5.453125 -0.78125 C 6.171875 -0.78125 6.820312 -0.941406 7.40625 -1.265625 C 7.988281 -1.585938 8.441406 -2.035156 8.765625 -2.609375 C 9.097656 -3.191406 9.265625 -3.835938 9.265625 -4.546875 C 9.265625 -5.253906 9.097656 -5.894531 8.765625 -6.46875 C 8.441406 -7.050781 7.988281 -7.503906 7.40625 -7.828125 C 6.820312 -8.148438 6.171875 -8.3125 5.453125 -8.3125 C 4.734375 -8.3125 4.082031 -8.148438 3.5 -7.828125 C 2.914062 -7.503906 2.457031 -7.050781 2.125 -6.46875 C 1.789062 -5.894531 1.625 -5.253906 1.625 -4.546875 C 1.625 -3.835938 1.789062 -3.191406 2.125 -2.609375 C 2.457031 -2.035156 2.914062 -1.585938 3.5 -1.265625 C 4.082031 -0.941406 4.734375 -0.78125 5.453125 -0.78125 Z M 5.453125 -0.78125 "/></g></g></g><g fill="#000000" fill-opacity="1"><g transform="translate(212.154681, 241.172034)"><g><path d="M 9.09375 -9.09375 L 9.09375 0 L 8.296875 0 L 2.4375 -7.390625 L 2.4375 0 L 1.484375 0 L 1.484375 -9.09375 L 2.28125 -9.09375 L 8.140625 -1.71875 L 8.140625 -9.09375 Z M 9.09375 -9.09375 "/></g></g></g><g fill="#000000" fill-opacity="1"><g transform="translate(227.478457, 241.172034)"><g><path d="M 7.921875 -0.828125 L 7.921875 0 L 1.484375 0 L 1.484375 -9.09375 L 7.71875 -9.09375 L 7.71875 -8.265625 L 2.4375 -8.265625 L 2.4375 -5.03125 L 7.15625 -5.03125 L 7.15625 -4.21875 L 2.4375 -4.21875 L 2.4375 -0.828125 Z M 7.921875 -0.828125 "/></g></g></g><g fill="#000000" fill-opacity="1"><g transform="translate(240.930815, 241.172034)"><g><path d="M 3.984375 0.078125 C 3.316406 0.078125 2.671875 -0.03125 2.046875 -0.25 C 1.429688 -0.46875 0.953125 -0.753906 0.609375 -1.109375 L 0.984375 -1.84375 C 1.316406 -1.519531 1.753906 -1.253906 2.296875 -1.046875 C 2.847656 -0.835938 3.410156 -0.734375 3.984375 -0.734375 C 4.804688 -0.734375 5.421875 -0.882812 5.828125 -1.1875 C 6.234375 -1.488281 6.4375 -1.878906 6.4375 -2.359375 C 6.4375 -2.722656 6.320312 -3.007812 6.09375 -3.21875 C 5.875 -3.4375 5.601562 -3.601562 5.28125 -3.71875 C 4.96875 -3.84375 4.523438 -3.972656 3.953125 -4.109375 C 3.265625 -4.285156 2.71875 -4.453125 2.3125 -4.609375 C 1.90625 -4.765625 1.554688 -5.007812 1.265625 -5.34375 C 0.972656 -5.675781 0.828125 -6.125 0.828125 -6.6875 C 0.828125 -7.144531 0.945312 -7.5625 1.1875 -7.9375 C 1.4375 -8.3125 1.8125 -8.609375 2.3125 -8.828125 C 2.8125 -9.054688 3.4375 -9.171875 4.1875 -9.171875 C 4.707031 -9.171875 5.21875 -9.097656 5.71875 -8.953125 C 6.21875 -8.816406 6.644531 -8.625 7 -8.375 L 6.6875 -7.609375 C 6.300781 -7.859375 5.890625 -8.046875 5.453125 -8.171875 C 5.023438 -8.296875 4.601562 -8.359375 4.1875 -8.359375 C 3.382812 -8.359375 2.78125 -8.203125 2.375 -7.890625 C 1.976562 -7.585938 1.78125 -7.191406 1.78125 -6.703125 C 1.78125 -6.335938 1.890625 -6.046875 2.109375 -5.828125 C 2.328125 -5.609375 2.601562 -5.4375 2.9375 -5.3125 C 3.269531 -5.195312 3.722656 -5.070312 4.296875 -4.9375 C 4.960938 -4.769531 5.5 -4.609375 5.90625 -4.453125 C 6.320312 -4.296875 6.671875 -4.050781 6.953125 -3.71875 C 7.242188 -3.394531 7.390625 -2.957031 7.390625 -2.40625 C 7.390625 -1.945312 7.265625 -1.523438 7.015625 -1.140625 C 6.765625 -0.765625 6.382812 -0.46875 5.875 -0.25 C 5.363281 -0.03125 4.734375 0.078125 3.984375 0.078125 Z M 3.984375 0.078125 "/></g></g></g><g fill="#000000" fill-opacity="1"><g transform="translate(253.673217, 241.172034)"><g/></g></g></svg>